<?xml version="1.0" encoding="UTF-8"?>
<svg version="1.1" xmlns="http://www.w3.org/2000/svg" width="64" height="64">
<path d="M0 0 C8.28035237 5.1989514 13.12022193 11.73566578 16.1875 20.9375 C16.93303419 33.18381577 16.8808701 42.33553983 8.9375 52.1875 C4.54398477 56.9313602 -1.17953238 61.49466341 -7.83032227 62.13037109 C-20.55986548 62.57654733 -29.8600783 62.57021056 -39.6875 53.625 C-47.35629725 45.35933881 -48.26929587 36.2406683 -48.0859375 25.40625 C-47.70830154 16.37289873 -43.34927239 9.98665026 -36.8125 3.9375 C-26.91140472 -3.39731875 -11.42036351 -5.40871253 0 0 Z " fill="#FEFDFA" transform="translate(47.8125,2.0625)"/>
<path d="M0 0 C1.98 1.65 3.96 3.3 6 5 C1.47008204 10.43733055 -3.34294216 15.46458931 -8.375 20.4375 C-9.11105469 21.16904297 -9.84710938 21.90058594 -10.60546875 22.65429688 C-12.40136074 24.43852723 -14.19955985 26.22036124 -16 28 C-17.98 26.35 -19.96 24.7 -22 23 C-17.47008204 17.56266945 -12.65705784 12.53541069 -7.625 7.5625 C-6.88894531 6.83095703 -6.15289062 6.09941406 -5.39453125 5.34570312 C-3.59863926 3.56147277 -1.80044015 1.77963876 0 0 Z " fill="#F0BA12" transform="translate(40,18)"/>
<path d="M0 0 C4 2 4 2 6 6 C-0.93 12.93 -7.86 19.86 -15 27 C-19 25 -19 25 -21 21 C-14.07 14.07 -7.14 7.14 0 0 Z " fill="#F0BA11" transform="translate(48,27)"/>
<path d="M0 0 C3.78496138 1.51398455 4.0072198 2.0144396 6 6 C1.71 10.29 -2.58 14.58 -7 19 C-8.98 17.35 -10.96 15.7 -13 14 C-8.88380164 9.08064098 -4.59589638 4.47352044 0 0 Z " fill="#F0BA12" transform="translate(31,10)"/>
<path d="M0 0 C2.62187494 1.04874998 3.79371361 1.64931313 5.25 4.125 C5.4975 4.74375 5.745 5.3625 6 6 C4.68 7.32 3.36 8.64 2 10 C-0.62187494 8.95125002 -1.79371361 8.35068687 -3.25 5.875 C-3.4975 5.25625 -3.745 4.6375 -4 4 C-2.68 2.68 -1.36 1.36 0 0 Z " fill="#F0BB14" transform="translate(14,27)"/>
</svg>
