<?xml version="1.0" encoding="UTF-8"?>
<svg version="1.1" xmlns="http://www.w3.org/2000/svg" width="64" height="64">
<path d="M0 0 C6.70794501 4.20728 12.72260523 10.79452694 15.6171875 18.2265625 C17.92226699 28.55673355 17.59528631 39.25497895 12.15625 48.50390625 C7.48560658 54.7729051 1.88840453 59.84974708 -5.75 62.0625 C-14.78521715 63.31305244 -25.78511186 63.70942631 -33.7109375 58.73828125 C-40.6267363 53.05460752 -46.8291832 46.25347011 -48.00097656 37.10253906 C-48.92771046 26.6663046 -48.21148177 17.73518557 -41.75 9.0625 C-31.4355441 -2.42914924 -14.52519775 -6.54880211 0 0 Z M-28.75 26.0625 C-29.61168952 29.50925808 -30.03359895 31.984824 -29.125 35.4375 C-27.80439917 37.24223727 -27.80439917 37.24223727 -25.4375 38.0625 C-22.6381966 38.26281442 -22.6381966 38.26281442 -20 36.6875 C-17.24478725 33.47308513 -16.94359554 31.29378363 -16.5 27.18359375 C-16.57590441 24.97892934 -16.57590441 24.97892934 -18.09765625 23.3125 C-19.73927945 21.87449224 -19.73927945 21.87449224 -22.1875 21.625 C-25.65994512 22.21785648 -26.70220992 23.21022096 -28.75 26.0625 Z M-11.75 22.0625 C-12.08776684 23.8116497 -12.42003671 25.56186145 -12.75 27.3125 C-12.935625 28.28703125 -13.12125 29.2615625 -13.3125 30.265625 C-13.85303017 33.24934279 -13.85303017 33.24934279 -13.75 37.0625 C-13.09 37.0625 -12.43 37.0625 -11.75 37.0625 C-11.75 35.0825 -11.75 33.1025 -11.75 31.0625 C-10.491875 31.145 -9.23375 31.2275 -7.9375 31.3125 C-4.48424654 31.3351793 -4.48424654 31.3351793 -1.6875 29.3125 C-0.57456726 27.12949336 -0.57456726 27.12949336 -0.9375 24.875 C-1.60634883 22.8704765 -1.60634883 22.8704765 -3.75 22.0625 C-5.12342831 21.9935528 -6.50002102 21.97782292 -7.875 22 C-9.15375 22.020625 -10.4325 22.04125 -11.75 22.0625 Z " fill="#FE0622" transform="translate(47.75,1.9375)"/>
<path d="M0 0 C2.375 0.375 2.375 0.375 3.375 1.375 C3.54296875 3.3359375 3.54296875 3.3359375 3.5625 5.75 C3.57667969 6.54148437 3.59085938 7.33296875 3.60546875 8.1484375 C3.375 10.375 3.375 10.375 1.375 13.375 C-1.75 13.5625 -1.75 13.5625 -4.625 13.375 C-6.03500664 10.55498673 -5.87048451 8.50492745 -5.625 5.375 C-3.61839934 0.51691419 -3.61839934 0.51691419 0 0 Z " fill="#FF102B" transform="translate(25.625,24.625)"/>
<path d="M0 0 C1.98 0 3.96 0 6 0 C6.625 2.375 6.625 2.375 7 5 C5 7 5 7 1.875 7.125 C0.451875 7.063125 0.451875 7.063125 -1 7 C-0.67 4.69 -0.34 2.38 0 0 Z " fill="#FF1832" transform="translate(38,25)"/>
<path d="M0 0 C0.66 0.33 1.32 0.66 2 1 C-1.96 4.96 -5.92 8.92 -10 13 C-10 9.28115772 -9.1259934 8.63852271 -6.6875 5.9375 C-5.76517578 4.89916016 -5.76517578 4.89916016 -4.82421875 3.83984375 C-3 2 -3 2 0 0 Z " fill="#FE1731" transform="translate(15,3)"/>
<path d="M0 0 C1.32 0 2.64 0 4 0 C4 1.32 4 2.64 4 4 C2.35 4 0.7 4 -1 4 C-0.67 2.68 -0.34 1.36 0 0 Z " fill="#FF031F" transform="translate(39,27)"/>
</svg>
