<?xml version="1.0" encoding="UTF-8"?>
<svg version="1.1" xmlns="http://www.w3.org/2000/svg" width="64" height="64">
<path d="M0 0 C21.12 0 42.24 0 64 0 C64 21.12 64 42.24 64 64 C42.88 64 21.76 64 0 64 C0 42.88 0 21.76 0 0 Z " fill="#01AEEF" transform="translate(0,0)"/>
<path d="M0 0 C1.05638672 -0.00064453 2.11277344 -0.00128906 3.20117188 -0.00195312 C4.29880859 0.01802734 5.39644531 0.03800781 6.52734375 0.05859375 C7.62884766 0.05150391 8.73035156 0.04441406 9.86523438 0.03710938 C17.94650154 0.1012856 17.94650154 0.1012856 20.28417969 1.88183594 C22.56611295 5.00179928 21.62610514 8.7870818 21.46484375 12.49609375 C17.83484375 12.49609375 14.20484375 12.49609375 10.46484375 12.49609375 C10.46484375 11.17609375 10.46484375 9.85609375 10.46484375 8.49609375 C7.82484375 8.49609375 5.18484375 8.49609375 2.46484375 8.49609375 C2.46484375 11.13609375 2.46484375 13.77609375 2.46484375 16.49609375 C3.5734375 16.4496875 4.68203125 16.40328125 5.82421875 16.35546875 C7.28773343 16.31794273 8.75127731 16.28154346 10.21484375 16.24609375 C10.94445312 16.21257813 11.6740625 16.1790625 12.42578125 16.14453125 C15.7906162 16.08335243 18.04988052 16.24294008 20.94921875 18.01171875 C23.05044418 21.45599549 23.04992225 24.58248276 22.96484375 28.49609375 C22.9803125 29.20765625 22.99578125 29.91921875 23.01171875 30.65234375 C22.98701548 33.96258196 22.81668688 36.03768079 20.77539062 38.69726562 C17.95146843 40.89577141 16.51035355 41.0106646 12.96484375 41.02734375 C11.91296875 41.0325 10.86109375 41.03765625 9.77734375 41.04296875 C8.68421875 41.0275 7.59109375 41.01203125 6.46484375 40.99609375 C5.37171875 41.0115625 4.27859375 41.02703125 3.15234375 41.04296875 C2.10046875 41.0378125 1.04859375 41.03265625 -0.03515625 41.02734375 C-0.99421875 41.02283203 -1.95328125 41.01832031 -2.94140625 41.01367188 C-6.2507478 40.35329875 -7.45356361 39.09778217 -9.53515625 36.49609375 C-10.04271472 33.71467332 -9.72544139 31.35037085 -9.53515625 28.49609375 C-5.57515625 28.49609375 -1.61515625 28.49609375 2.46484375 28.49609375 C2.46484375 29.81609375 2.46484375 31.13609375 2.46484375 32.49609375 C5.10484375 32.49609375 7.74484375 32.49609375 10.46484375 32.49609375 C10.46484375 29.85609375 10.46484375 27.21609375 10.46484375 24.49609375 C9.35625 24.5425 8.24765625 24.58890625 7.10546875 24.63671875 C5.64195407 24.67424477 4.17841019 24.71064404 2.71484375 24.74609375 C1.98523437 24.77960937 1.255625 24.813125 0.50390625 24.84765625 C-2.8609287 24.90883507 -5.12019302 24.74924742 -8.01953125 22.98046875 C-10.12075668 19.53619201 -10.12023475 16.40970474 -10.03515625 12.49609375 C-10.050625 11.78453125 -10.06609375 11.07296875 -10.08203125 10.33984375 C-10.05733415 7.03043192 -9.88557002 4.9536953 -7.84790039 2.29272461 C-5.00808003 0.08664016 -3.56240538 -0.00683763 0 0 Z " fill="#F2FAFE" transform="translate(25.53515625,11.50390625)"/>
</svg>
