<?xml version="1.0" encoding="UTF-8"?>
<svg version="1.1" xmlns="http://www.w3.org/2000/svg" width="64" height="64">
<path d="M0 0 C1.04837036 -0.00143509 1.04837036 -0.00143509 2.11791992 -0.00289917 C3.59391368 -0.00357891 5.06991045 -0.00173895 6.54589844 0.00244141 C8.80410481 0.00779261 11.0621123 0.00248952 13.3203125 -0.00390625 C14.75520877 -0.00324543 16.19010492 -0.00196419 17.625 0 C19.58373047 0.00169189 19.58373047 0.00169189 21.58203125 0.00341797 C24.8125 0.1328125 24.8125 0.1328125 27.8125 1.1328125 C27.8125 1.7928125 27.8125 2.4528125 27.8125 3.1328125 C28.43125 3.2771875 29.05 3.4215625 29.6875 3.5703125 C31.8125 4.1328125 31.8125 4.1328125 33.8125 5.1328125 C33.8125 5.7928125 33.8125 6.4528125 33.8125 7.1328125 C34.39 7.2153125 34.9675 7.2978125 35.5625 7.3828125 C38.49044601 8.3587945 39.86494537 9.76792473 41.8125 12.1328125 C41.8125 13.1228125 41.8125 14.1128125 41.8125 15.1328125 C42.4725 15.1328125 43.1325 15.1328125 43.8125 15.1328125 C45.58402324 20.44738221 45.03810289 26.19028862 45.05273438 31.75634766 C45.06243528 33.99289203 45.09346772 36.22851511 45.125 38.46484375 C45.13153116 39.89322373 45.13678119 41.32161026 45.140625 42.75 C45.1499707 44.04534668 45.15931641 45.34069336 45.16894531 46.67529297 C44.79175646 50.33402487 44.07476828 52.25850633 41.8125 55.1328125 C41.1525 55.1328125 40.4925 55.1328125 39.8125 55.1328125 C39.8125 55.7928125 39.8125 56.4528125 39.8125 57.1328125 C39.1525 57.1328125 38.4925 57.1328125 37.8125 57.1328125 C37.8125 57.7928125 37.8125 58.4528125 37.8125 59.1328125 C37.1525 59.1328125 36.4925 59.1328125 35.8125 59.1328125 C35.8125 59.7928125 35.8125 60.4528125 35.8125 61.1328125 C34.8225 61.1328125 33.8325 61.1328125 32.8125 61.1328125 C32.8125 61.7928125 32.8125 62.4528125 32.8125 63.1328125 C29.91911282 64.09727489 28.08874409 64.25936907 25.08154297 64.26220703 C24.12400116 64.26535919 23.16645935 64.26851135 22.17990112 64.27175903 C20.63292038 64.26872269 20.63292038 64.26872269 19.0546875 64.265625 C17.46649704 64.26706009 17.46649704 64.26706009 15.84622192 64.26852417 C13.60858094 64.26920476 11.37093797 64.26735889 9.13330078 64.26318359 C5.69429127 64.25782309 2.25541174 64.26313813 -1.18359375 64.26953125 C-3.35416696 64.26887066 -5.52474008 64.26758988 -7.6953125 64.265625 C-8.73068146 64.26764923 -9.76605042 64.26967346 -10.83279419 64.27175903 C-12.25965042 64.26703079 -12.25965042 64.26703079 -13.71533203 64.26220703 C-14.55677765 64.26141144 -15.39822327 64.26061584 -16.26516724 64.25979614 C-18.1875 64.1328125 -18.1875 64.1328125 -19.1875 63.1328125 C-19.28603479 61.55277475 -19.31548685 59.96836048 -19.31689453 58.38525391 C-19.32004669 57.37395416 -19.32319885 56.36265442 -19.32644653 55.32070923 C-19.32341019 53.66922379 -19.32341019 53.66922379 -19.3203125 51.984375 C-19.32126923 50.86090668 -19.32222595 49.73743835 -19.32321167 48.57992554 C-19.32389379 46.19748885 -19.32203731 43.81505033 -19.31787109 41.43261719 C-19.31253324 37.78055647 -19.3178099 34.12861931 -19.32421875 30.4765625 C-19.32355778 28.16666639 -19.32227622 25.85677037 -19.3203125 23.546875 C-19.32233673 22.44993317 -19.32436096 21.35299133 -19.32644653 20.22280884 C-19.32329437 19.20520477 -19.32014221 18.18760071 -19.31689453 17.13916016 C-19.31609894 16.24282867 -19.31530334 15.34649719 -19.31448364 14.42300415 C-19.1875 12.1328125 -19.1875 12.1328125 -18.1875 9.1328125 C-17.5275 9.1328125 -16.8675 9.1328125 -16.1875 9.1328125 C-16.1875 8.4728125 -16.1875 7.8128125 -16.1875 7.1328125 C-15.5275 7.1328125 -14.8675 7.1328125 -14.1875 7.1328125 C-14.1875 6.4728125 -14.1875 5.8128125 -14.1875 5.1328125 C-13.5275 5.1328125 -12.8675 5.1328125 -12.1875 5.1328125 C-12.1875 4.4728125 -12.1875 3.8128125 -12.1875 3.1328125 C-11.5275 3.1328125 -10.8675 3.1328125 -10.1875 3.1328125 C-10.1875 2.4728125 -10.1875 1.8128125 -10.1875 1.1328125 C-6.62442298 -0.05487984 -3.75984676 0.00324765 0 0 Z " fill="#7F7F7F" transform="translate(19.1875,-0.1328125)"/>
<path d="M0 0 C1.04837036 -0.00143509 1.04837036 -0.00143509 2.11791992 -0.00289917 C3.59391368 -0.00357891 5.06991045 -0.00173895 6.54589844 0.00244141 C8.80410481 0.00779261 11.0621123 0.00248952 13.3203125 -0.00390625 C14.75520877 -0.00324543 16.19010492 -0.00196419 17.625 0 C19.58373047 0.00169189 19.58373047 0.00169189 21.58203125 0.00341797 C24.8125 0.1328125 24.8125 0.1328125 27.8125 1.1328125 C27.8125 1.7928125 27.8125 2.4528125 27.8125 3.1328125 C28.43125 3.2771875 29.05 3.4215625 29.6875 3.5703125 C31.8125 4.1328125 31.8125 4.1328125 33.8125 5.1328125 C33.8125 5.7928125 33.8125 6.4528125 33.8125 7.1328125 C34.39 7.2153125 34.9675 7.2978125 35.5625 7.3828125 C38.49044601 8.3587945 39.86494537 9.76792473 41.8125 12.1328125 C41.8125 13.1228125 41.8125 14.1128125 41.8125 15.1328125 C42.4725 15.1328125 43.1325 15.1328125 43.8125 15.1328125 C45.58402324 20.44738221 45.03810289 26.19028862 45.05273438 31.75634766 C45.06243528 33.99289203 45.09346772 36.22851511 45.125 38.46484375 C45.13153116 39.89322373 45.13678119 41.32161026 45.140625 42.75 C45.1499707 44.04534668 45.15931641 45.34069336 45.16894531 46.67529297 C44.79175646 50.33402487 44.07476828 52.25850633 41.8125 55.1328125 C41.1525 55.1328125 40.4925 55.1328125 39.8125 55.1328125 C39.8125 55.7928125 39.8125 56.4528125 39.8125 57.1328125 C39.1525 57.1328125 38.4925 57.1328125 37.8125 57.1328125 C37.8125 57.7928125 37.8125 58.4528125 37.8125 59.1328125 C37.1525 59.1328125 36.4925 59.1328125 35.8125 59.1328125 C35.8125 59.7928125 35.8125 60.4528125 35.8125 61.1328125 C34.8225 61.1328125 33.8325 61.1328125 32.8125 61.1328125 C32.8125 61.7928125 32.8125 62.4528125 32.8125 63.1328125 C29.91911282 64.09727489 28.08874409 64.25936907 25.08154297 64.26220703 C24.12400116 64.26535919 23.16645935 64.26851135 22.17990112 64.27175903 C20.63292038 64.26872269 20.63292038 64.26872269 19.0546875 64.265625 C17.46649704 64.26706009 17.46649704 64.26706009 15.84622192 64.26852417 C13.60858094 64.26920476 11.37093797 64.26735889 9.13330078 64.26318359 C5.69429127 64.25782309 2.25541174 64.26313813 -1.18359375 64.26953125 C-3.35416696 64.26887066 -5.52474008 64.26758988 -7.6953125 64.265625 C-8.73068146 64.26764923 -9.76605042 64.26967346 -10.83279419 64.27175903 C-12.25965042 64.26703079 -12.25965042 64.26703079 -13.71533203 64.26220703 C-14.55677765 64.26141144 -15.39822327 64.26061584 -16.26516724 64.25979614 C-18.1875 64.1328125 -18.1875 64.1328125 -19.1875 63.1328125 C-19.28603479 61.55277475 -19.31548685 59.96836048 -19.31689453 58.38525391 C-19.32004669 57.37395416 -19.32319885 56.36265442 -19.32644653 55.32070923 C-19.32341019 53.66922379 -19.32341019 53.66922379 -19.3203125 51.984375 C-19.32126923 50.86090668 -19.32222595 49.73743835 -19.32321167 48.57992554 C-19.32389379 46.19748885 -19.32203731 43.81505033 -19.31787109 41.43261719 C-19.31253324 37.78055647 -19.3178099 34.12861931 -19.32421875 30.4765625 C-19.32355778 28.16666639 -19.32227622 25.85677037 -19.3203125 23.546875 C-19.32233673 22.44993317 -19.32436096 21.35299133 -19.32644653 20.22280884 C-19.32329437 19.20520477 -19.32014221 18.18760071 -19.31689453 17.13916016 C-19.31609894 16.24282867 -19.31530334 15.34649719 -19.31448364 14.42300415 C-19.1875 12.1328125 -19.1875 12.1328125 -18.1875 9.1328125 C-17.5275 9.1328125 -16.8675 9.1328125 -16.1875 9.1328125 C-16.1875 8.4728125 -16.1875 7.8128125 -16.1875 7.1328125 C-15.5275 7.1328125 -14.8675 7.1328125 -14.1875 7.1328125 C-14.1875 6.4728125 -14.1875 5.8128125 -14.1875 5.1328125 C-13.5275 5.1328125 -12.8675 5.1328125 -12.1875 5.1328125 C-12.1875 4.4728125 -12.1875 3.8128125 -12.1875 3.1328125 C-11.5275 3.1328125 -10.8675 3.1328125 -10.1875 3.1328125 C-10.1875 2.4728125 -10.1875 1.8128125 -10.1875 1.1328125 C-6.62442298 -0.05487984 -3.75984676 0.00324765 0 0 Z M-9.6875 11.6328125 C-13.73410936 16.47547616 -15.60608175 19.71455892 -15.1875 26.1328125 C-14.8575 26.7928125 -14.5275 27.4528125 -14.1875 28.1328125 C-15.1775 28.4628125 -16.1675 28.7928125 -17.1875 29.1328125 C-16.1975 32.1028125 -15.2075 35.0728125 -14.1875 38.1328125 C-14.8475 38.1328125 -15.5075 38.1328125 -16.1875 38.1328125 C-16.1875 38.7928125 -16.1875 39.4528125 -16.1875 40.1328125 C-15.5275 40.1328125 -14.8675 40.1328125 -14.1875 40.1328125 C-13.7853125 41.339375 -13.7853125 41.339375 -13.375 42.5703125 C-12.983125 43.4159375 -12.59125 44.2615625 -12.1875 45.1328125 C-11.1975 45.4628125 -10.2075 45.7928125 -9.1875 46.1328125 C-8.8575 46.7928125 -8.5275 47.4528125 -8.1875 48.1328125 C-6.7025 47.6378125 -6.7025 47.6378125 -5.1875 47.1328125 C-4.8575 48.1228125 -4.5275 49.1128125 -4.1875 50.1328125 C-1.13241974 53.16558449 -1.13241974 53.16558449 2.8125 54.1328125 C2.8125 54.7928125 2.8125 55.4528125 2.8125 56.1328125 C4.1325 56.1328125 5.4525 56.1328125 6.8125 56.1328125 C6.8125 56.7928125 6.8125 57.4528125 6.8125 58.1328125 C19.69677375 59.25763964 19.69677375 59.25763964 31.0078125 53.984375 C37.03419932 48.02452273 37.03419932 48.02452273 38.8125 40.1328125 C39.4725 40.1328125 40.1325 40.1328125 40.8125 40.1328125 C41.5183341 28.93076038 41.5183341 28.93076038 36.8125 19.1328125 C34.33399841 16.52963779 31.82220959 14.11044508 28.8125 12.1328125 C27.8225 12.1328125 26.8325 12.1328125 25.8125 12.1328125 C25.3175 10.6478125 25.3175 10.6478125 24.8125 9.1328125 C23.8225 8.6378125 22.8325 8.1428125 21.8125 7.6328125 C18.8125 6.1328125 18.8125 6.1328125 17.8125 3.1328125 C6.63119621 2.50189254 -1.82415824 3.06360523 -9.6875 11.6328125 Z " fill="#0F070A" transform="translate(19.1875,-0.1328125)"/>
<path d="M0 0 C0.99 0 1.98 0 3 0 C3.99 3.63 4.98 7.26 6 11 C9.3 11.33 12.6 11.66 16 12 C16.12375 11.21625 16.2475 10.4325 16.375 9.625 C17 7 17 7 19 5 C19 7.31 19 9.62 19 12 C21.31 12 23.62 12 26 12 C25.649375 11.236875 25.29875 10.47375 24.9375 9.6875 C24 7 24 7 25 4 C25 3.01 25 2.02 25 1 C26.32 1.33 27.64 1.66 29 2 C29 5.3 29 8.6 29 12 C30.32 12 31.64 12 33 12 C33 8.7 33 5.4 33 2 C33.99 2 34.98 2 36 2 C36 5.3 36 8.6 36 12 C39.3 12 42.6 12 46 12 C46 8.37 46 4.74 46 1 C46.99 1 47.98 1 49 1 C49.46926329 10.61120744 48.11189571 16.83366579 41.890625 24.32421875 C36.08707231 29.46827681 31.5925785 30.58553049 24.0625 30.25 C23.28326172 30.23195313 22.50402344 30.21390625 21.70117188 30.1953125 C19.80023869 30.14866383 17.89994831 30.07693829 16 30 C16 29.34 16 28.68 16 28 C14.68 28 13.36 28 12 28 C12 27.34 12 26.68 12 26 C11.4225 25.731875 10.845 25.46375 10.25 25.1875 C5.06283939 22.4498319 3.42642533 20.27278342 1.61328125 14.7421875 C1.13940465 12.99533926 1.13940465 12.99533926 0 12 C-0.07244053 9.98035801 -0.08377188 7.95832876 -0.0625 5.9375 C-0.05347656 4.83277344 -0.04445313 3.72804688 -0.03515625 2.58984375 C-0.02355469 1.73519531 -0.01195312 0.88054688 0 0 Z " fill="#F5F5F5" transform="translate(10,28)"/>
<path d="M0 0 C1.3125 1.953125 1.3125 1.953125 2.3125 9.953125 C-12.5375 9.623125 -27.3875 9.293125 -42.6875 8.953125 C-41.31535938 2.09242191 -37.64181447 -1.86630956 -32.0625 -5.984375 C-20.37390338 -11.21348401 -9.58452734 -7.36588675 0 0 Z " fill="#F3F3F3" transform="translate(54.6875,17.046875)"/>
<path d="M0 0 C1.32 0.66 2.64 1.32 4 2 C4 2.66 4 3.32 4 4 C4.5775 4.0825 5.155 4.165 5.75 4.25 C8.67794601 5.225982 10.05244537 6.63511223 12 9 C12 9.99 12 10.98 12 12 C12.66 12 13.32 12 14 12 C15.77152324 17.31456971 15.22560289 23.05747612 15.24023438 28.62353516 C15.24993528 30.86007953 15.28096772 33.09570261 15.3125 35.33203125 C15.31903116 36.76041123 15.32428119 38.18879776 15.328125 39.6171875 C15.34214355 41.56020752 15.34214355 41.56020752 15.35644531 43.54248047 C14.97925646 47.20121237 14.26226828 49.12569383 12 52 C11.34 52 10.68 52 10 52 C10 52.66 10 53.32 10 54 C9.34 54 8.68 54 8 54 C8 54.66 8 55.32 8 56 C7.34 56 6.68 56 6 56 C6 56.66 6 57.32 6 58 C5.01 58 4.02 58 3 58 C3 58.66 3 59.32 3 60 C-0.56045177 61.18681726 -3.43808337 61.09689832 -7.1875 61.0625 C-8.45980469 61.05347656 -9.73210938 61.04445312 -11.04296875 61.03515625 C-12.50669922 61.01775391 -12.50669922 61.01775391 -14 61 C-13.34 60.34 -12.68 59.68 -12 59 C-11.01 59 -10.02 59 -9 59 C-9 58.34 -9 57.68 -9 57 C-13.95 56.67 -18.9 56.34 -24 56 C-24 55.34 -24 54.68 -24 54 C-25.32 54 -26.64 54 -28 54 C-28.495 52.515 -28.495 52.515 -29 51 C-28.34 51 -27.68 51 -27 51 C-27 51.66 -27 52.32 -27 53 C-25.68 53 -24.36 53 -23 53 C-23 53.66 -23 54.32 -23 55 C-10.05797593 55.24555527 -10.05797593 55.24555527 1.265625 49.75 C5.01397987 45.96787617 7.88601563 42.31463374 9 37 C9.66 37 10.32 37 11 37 C10.66632429 24.52277751 10.66632429 24.52277751 4.28515625 14.25390625 C1.64554792 11.92680969 -1.07026825 9.9531545 -4 8 C-3.34 8 -2.68 8 -2 8 C-2 7.34 -2 6.68 -2 6 C-0.68 6 0.64 6 2 6 C2 5.34 2 4.68 2 4 C1.01 4.33 0.02 4.66 -1 5 C-0.67 3.35 -0.34 1.7 0 0 Z " fill="#150E10" transform="translate(49,3)"/>
<path d="M0 0 C0.495 1.485 0.495 1.485 1 3 C2.62948064 4.22445284 2.62948064 4.22445284 4.5625 5.1875 C5.696875 5.785625 6.83125 6.38375 8 7 C7.34 7.33 6.68 7.66 6 8 C5.01 7.67 4.02 7.34 3 7 C-3.59824961 6.38066971 -10.14963999 6.65993809 -16 10 C-21.818021 15.10704081 -25.63914388 20.01610035 -26.20703125 27.859375 C-26.39911723 33.69309721 -26.25541616 37.04386511 -23 42 C-23 42.66 -23 43.32 -23 44 C-24.98 44.495 -24.98 44.495 -27 45 C-27 44.01 -27 43.02 -27 42 C-27.99 42 -28.98 42 -30 42 C-30.66 40.35 -31.32 38.7 -32 37 C-32.66 37 -33.32 37 -34 37 C-34 36.34 -34 35.68 -34 35 C-33.34 35 -32.68 35 -32 35 C-32.99 32.03 -33.98 29.06 -35 26 C-34.01 25.67 -33.02 25.34 -32 25 C-32.33 24.34 -32.66 23.68 -33 23 C-33.75370998 18.58541299 -32.7060598 16.08929081 -30.375 12.4375 C-22.28553654 1.19163374 -13.31536986 -0.54804114 0 0 Z " fill="#3D212D" transform="translate(37,3)"/>
<path d="M0 0 C1.98 0 3.96 0 6 0 C6 0.99 6 1.98 6 3 C6.99 3 7.98 3 9 3 C12.52115858 6.00586708 14.60865582 8.57299578 16 13 C17.32 13 18.64 13 20 13 C20 13.66 20 14.32 20 15 C25.28 15 30.56 15 36 15 C35 18 35 18 32.91918945 19.17529297 C29.33684396 20.18734976 25.98045819 20.25000047 22.29296875 20.1953125 C21.56757401 20.1924826 20.84217926 20.18965271 20.09480286 20.18673706 C17.79219632 20.17559799 15.48998773 20.15050566 13.1875 20.125 C11.62044835 20.11496206 10.05339057 20.10583763 8.48632812 20.09765625 C4.65740022 20.0756793 0.82876744 20.04119339 -3 20 C-3 19.01 -3 18.02 -3 17 C-3.268125 16.05125 -3.53625 15.1025 -3.8125 14.125 C-4 11 -4 11 -1.6875 8.125 C1 6 1 6 3 6 C2.2575 5.071875 2.2575 5.071875 1.5 4.125 C0 2 0 2 0 0 Z " fill="#060405" transform="translate(5,44)"/>
<path d="M0 0 C1.25425781 0.01804688 2.50851563 0.03609375 3.80078125 0.0546875 C5.22970703 0.08949219 5.22970703 0.08949219 6.6875 0.125 C6.3575 1.115 6.0275 2.105 5.6875 3.125 C4.65302734 3.21974609 4.65302734 3.21974609 3.59765625 3.31640625 C-5.46179044 4.49699258 -10.55317037 8.17288424 -16.75 14.6875 C-18.49730412 17.41329443 -19.44452573 20.01475887 -20.3125 23.125 C-21.6325 22.795 -22.9525 22.465 -24.3125 22.125 C-25.16155622 16.6061346 -23.11965629 13.56414902 -20.02734375 9.2421875 C-14.42191853 2.32159417 -8.9041509 -0.16643273 0 0 Z " fill="#CA1967" transform="translate(28.3125,3.875)"/>
<path d="M0 0 C0.61617187 0.17660156 1.23234375 0.35320313 1.8671875 0.53515625 C4.00626106 1.1711144 4.00626106 1.1711144 6.125 0.4375 C6.74375 0.293125 7.3625 0.14875 8 0 C8.66 0.66 9.32 1.32 10 2 C10.33 1.34 10.66 0.68 11 0 C11.99 0 12.98 0 14 0 C13.25749403 4.08378283 12.17076699 8.01939223 11 12 C10.01 12 9.02 12 8 12 C8 11.01 8 10.02 8 9 C7.34 9 6.68 9 6 9 C6 10.32 6 11.64 6 13 C3.5625 12.625 3.5625 12.625 1 12 C-0.26237731 9.47524538 -0.09856404 7.68799534 -0.0625 4.875 C-0.05347656 3.96492188 -0.04445313 3.05484375 -0.03515625 2.1171875 C-0.02355469 1.41851563 -0.01195312 0.71984375 0 0 Z " fill="#353535" transform="translate(14,27)"/>
<path d="M0 0 C1.32 0.66 2.64 1.32 4 2 C4 2.66 4 3.32 4 4 C4.61875 4.12375 5.2375 4.2475 5.875 4.375 C8 5 8 5 10 7 C10 8.32 10 9.64 10 11 C9.01 11.33 8.02 11.66 7 12 C6.01 13.485 6.01 13.485 5 15 C3.53515625 13.76302083 2.0703125 12.52604167 0.60546875 11.2890625 C-0.8655046 10.10798901 -2.43037794 9.04641471 -4 8 C-3.34 8 -2.68 8 -2 8 C-2 7.34 -2 6.68 -2 6 C-0.68 6 0.64 6 2 6 C2 5.34 2 4.68 2 4 C1.01 4.33 0.02 4.66 -1 5 C-0.67 3.35 -0.34 1.7 0 0 Z " fill="#1B1316" transform="translate(49,3)"/>
<path d="M0 0 C0.66 0 1.32 0 2 0 C2 0.66 2 1.32 2 2 C3.32 2 4.64 2 6 2 C6 2.66 6 3.32 6 4 C8.73064947 3.91269147 11.4581619 3.80577876 14.1875 3.6875 C14.95642578 3.66494141 15.72535156 3.64238281 16.51757812 3.61914062 C21.2332973 3.39651011 23.99696446 2.69130638 28 0 C28.66 0.33 29.32 0.66 30 1 C29.67 1.66 29.34 2.32 29 3 C28.01 3 27.02 3 26 3 C27.39759905 6.54518884 27.39759905 6.54518884 29 10 C24.38 10 19.76 10 15 10 C15.66 9.34 16.32 8.68 17 8 C17.99 8 18.98 8 20 8 C20 7.34 20 6.68 20 6 C15.05 5.67 10.1 5.34 5 5 C5 4.34 5 3.68 5 3 C3.68 3 2.36 3 1 3 C0.67 2.01 0.34 1.02 0 0 Z " fill="#302B2D" transform="translate(20,54)"/>
<path d="M0 0 C1.32 0.33 2.64 0.66 4 1 C4 4.3 4 7.6 4 11 C5.32 11 6.64 11 8 11 C8 7.7 8 4.4 8 1 C8.99 1 9.98 1 11 1 C11 4.3 11 7.6 11 11 C7.93466836 12.53266582 4.73245728 12.10276471 1.375 12.0625 C0.66859375 12.05798828 -0.0378125 12.05347656 -0.765625 12.04882812 C-2.51045275 12.03703875 -4.255237 12.01910324 -6 12 C-6 11.67 -6 11.34 -6 11 C-3.69 11 -1.38 11 1 11 C0.649375 10.236875 0.29875 9.47375 -0.0625 8.6875 C-1 6 -1 6 0 3 C0 2.01 0 1.02 0 0 Z " fill="#BBBBBB" transform="translate(35,29)"/>
<path d="M0 0 C0.33 0 0.66 0 1 0 C1 3.96 1 7.92 1 12 C1.99 12.33 2.98 12.66 4 13 C5.1875 16.0625 5.1875 16.0625 6 19 C4.68 19.33 3.36 19.66 2 20 C2 19.01 2 18.02 2 17 C1.01 17 0.02 17 -1 17 C-1.66 15.35 -2.32 13.7 -3 12 C-3.66 12 -4.32 12 -5 12 C-5 11.34 -5 10.68 -5 10 C-4.34 10 -3.68 10 -3 10 C-3 9.01 -3 8.02 -3 7 C-2.34 7 -1.68 7 -1 7 C-1.020625 6.030625 -1.04125 5.06125 -1.0625 4.0625 C-1 1 -1 1 0 0 Z " fill="#320619" transform="translate(8,28)"/>
<path d="M0 0 C1.98 0 3.96 0 6 0 C6 4.33333333 6 8.66666667 6 13 C4.02 13 2.04 13 0 13 C0 8.71 0 4.42 0 0 Z " fill="#1A1A1A" transform="translate(30,27)"/>
<path d="M0 0 C0.33 0.99 0.66 1.98 1 3 C0.67 3.66 0.34 4.32 0 5 C1.32 4.67 2.64 4.34 4 4 C4.66 5.32 5.32 6.64 6 8 C5.01 8.721875 4.02 9.44375 3 10.1875 C0.67014346 12.12629315 0.07882975 12.62336898 -0.5625 15.6875 C-0.18800716 18.36387504 -0.18800716 18.36387504 3 20 C1.02 20.99 1.02 20.99 -1 22 C-2 21 -2 21 -2.11352539 19.05053711 C-2.10567017 17.8015564 -2.10567017 17.8015564 -2.09765625 16.52734375 C-2.09443359 15.62822266 -2.09121094 14.72910156 -2.08789062 13.80273438 C-2.07951172 12.85720703 -2.07113281 11.91167969 -2.0625 10.9375 C-2.05798828 9.98810547 -2.05347656 9.03871094 -2.04882812 8.06054688 C-2.0370011 5.70696935 -2.02052025 3.35351523 -2 1 C-1.34 0.67 -0.68 0.34 0 0 Z " fill="#140B0E" transform="translate(2,42)"/>
<path d="M0 0 C0.99 0 1.98 0 3 0 C3 1.32 3 2.64 3 4 C3.99 4 4.98 4 6 4 C6 2.68 6 1.36 6 0 C6.66 0 7.32 0 8 0 C8 3.96 8 7.92 8 12 C7.34 12 6.68 12 6 12 C6 10.35 6 8.7 6 7 C5.01 7 4.02 7 3 7 C3 8.65 3 10.3 3 12 C2.01 12 1.02 12 0 12 C0 8.04 0 4.08 0 0 Z " fill="#151515" transform="translate(46,27)"/>
<path d="M0 0 C0.99 0 1.98 0 3 0 C3.27263672 1.15628906 3.27263672 1.15628906 3.55078125 2.3359375 C3.80214844 3.33882812 4.05351562 4.34171875 4.3125 5.375 C4.55613281 6.37273438 4.79976562 7.37046875 5.05078125 8.3984375 C5.82193858 11.3084986 5.82193858 11.3084986 9 13 C6.03 12.505 6.03 12.505 3 12 C2.67 13.32 2.34 14.64 2 16 C-0.14336161 12.5233662 -0.21277626 9.78770805 -0.125 5.75 C-0.10695313 4.67234375 -0.08890625 3.5946875 -0.0703125 2.484375 C-0.04710937 1.66453125 -0.02390625 0.8446875 0 0 Z " fill="#D2D2D2" transform="translate(10,28)"/>
<path d="M0 0 C2.78490859 3.91950098 1.81114407 7.78612016 1.125 12.25 C1.02058594 12.99507812 0.91617187 13.74015625 0.80859375 14.5078125 C0.55018787 16.34014511 0.27657918 18.17032234 0 20 C-0.33 20 -0.66 20 -1 20 C-1.33 16.37 -1.66 12.74 -2 9 C-2.33 10.98 -2.66 12.96 -3 15 C-4.9375 14.25 -4.9375 14.25 -7 13 C-7.75 10.875 -7.75 10.875 -8 9 C-7.01 8.67 -6.02 8.34 -5 8 C-4.67 7.34 -4.34 6.68 -4 6 C-3.34 6.33 -2.68 6.66 -2 7 C-1.855625 6.030625 -1.71125 5.06125 -1.5625 4.0625 C-1 1 -1 1 0 0 Z " fill="#4F2537" transform="translate(10,20)"/>
<path d="M0 0 C2.31 0 4.62 0 7 0 C7 3 7 3 5.50390625 4.53515625 C4.86324219 5.03917969 4.22257813 5.54320312 3.5625 6.0625 C0.84124807 8.1671333 0.84124807 8.1671333 -1 11 C-3.5625 11.625 -3.5625 11.625 -6 12 C-5.4409112 8.75728494 -4.5867822 7.06942576 -2 5 C-1.34 5 -0.68 5 0 5 C0 3.35 0 1.7 0 0 Z " fill="#0A0205" transform="translate(9,4)"/>
<path d="M0 0 C1.65 0 3.3 0 5 0 C4.67 4.29 4.34 8.58 4 13 C2.68 13 1.36 13 0 13 C0 8.71 0 4.42 0 0 Z " fill="#2F2F2F" transform="translate(39,27)"/>
<path d="M0 0 C0.66 0 1.32 0 2 0 C2 5.66666667 2 11.33333333 2 17 C2.66 17.66 3.32 18.32 4 19 C2.694761 21.61047801 1.64173426 21.68066423 -1.0625 22.625 C-2.16271484 23.01558594 -2.16271484 23.01558594 -3.28515625 23.4140625 C-3.85105469 23.60742188 -4.41695312 23.80078125 -5 24 C-3.66666667 20.66666667 -2.33333333 17.33333333 -1 14 C-0.34 14 0.32 14 1 14 C0.67 9.38 0.34 4.76 0 0 Z " fill="#373536" transform="translate(59,26)"/>
<path d="M0 0 C2 1 2 1 3.1171875 3.13671875 C4.15384946 6.49898963 4.19595073 9.30043893 4.125 12.8125 C4.10695313 13.97394531 4.08890625 15.13539062 4.0703125 16.33203125 C4.04710937 17.21246094 4.02390625 18.09289062 4 19 C3.67 19 3.34 19 3 19 C2.67 15.37 2.34 11.74 2 8 C1.67 8 1.34 8 1 8 C0.67 11.63 0.34 15.26 0 19 C-0.33 19 -0.66 19 -1 19 C-1.02699725 16.72923158 -1.04639453 14.45837179 -1.0625 12.1875 C-1.07990234 10.29064453 -1.07990234 10.29064453 -1.09765625 8.35546875 C-1 5 -1 5 0 2 C0 1.34 0 0.68 0 0 Z " fill="#A7A7A7" transform="translate(56,21)"/>
<path d="M0 0 C0.99 0 1.98 0 3 0 C3 4.62 3 9.24 3 14 C0.03 14 -2.94 14 -6 14 C-5.01 13.67 -4.02 13.34 -3 13 C-3 11.35 -3 9.7 -3 8 C-2.01 8 -1.02 8 0 8 C0 9.65 0 11.3 0 13 C0.66 13 1.32 13 2 13 C2 9.04 2 5.08 2 1 C1.34 0.67 0.68 0.34 0 0 Z " fill="#646464" transform="translate(52,26)"/>
<path d="M0 0 C-3.12343663 2.08229108 -3.53852922 2.23770457 -7.01171875 1.9765625 C-7.76904297 1.925 -8.52636719 1.8734375 -9.30664062 1.8203125 C-10.48516602 1.72363281 -10.48516602 1.72363281 -11.6875 1.625 C-12.48478516 1.56828125 -13.28207031 1.5115625 -14.10351562 1.453125 C-16.06973581 1.31183972 -18.03498824 1.15720094 -20 1 C-19.67 0.34 -19.34 -0.32 -19 -1 C-16.26953125 -1.484375 -16.26953125 -1.484375 -12.8125 -1.75 C-11.68457031 -1.84796875 -10.55664062 -1.9459375 -9.39453125 -2.046875 C-5.85105198 -1.99794318 -3.27885175 -1.29362891 0 0 Z " fill="#040203" transform="translate(40,2)"/>
<path d="M0 0 C0.66 0.33 1.32 0.66 2 1 C2.05429959 2.74965358 2.09292823 4.49979787 2.125 6.25 C2.14820313 7.22453125 2.17140625 8.1990625 2.1953125 9.203125 C1.99862781 12.0196498 1.44568916 13.60949036 0 16 C-0.98204842 12.71871122 -1.13412615 9.73024479 -1.125 6.3125 C-1.12757812 5.33925781 -1.13015625 4.36601563 -1.1328125 3.36328125 C-1 1 -1 1 0 0 Z " fill="#EDEDED" transform="translate(57,28)"/>
<path d="M0 0 C2.475 0.495 2.475 0.495 5 1 C4.67 2.98 4.34 4.96 4 7 C3.34 7 2.68 7 2 7 C2 8.65 2 10.3 2 12 C0 10 0 10 -0.1953125 7.6171875 C-0.17210937 6.71226563 -0.14890625 5.80734375 -0.125 4.875 C-0.10695313 3.96492188 -0.08890625 3.05484375 -0.0703125 2.1171875 C-0.04710937 1.41851563 -0.02390625 0.71984375 0 0 Z " fill="#424242" transform="translate(14,27)"/>
<path d="M0 0 C0.66 0 1.32 0 2 0 C2 4.62 2 9.24 2 14 C0.68 14.33 -0.64 14.66 -2 15 C-1.67 14.01 -1.34 13.02 -1 12 C-0.77674186 9.94106379 -0.59294241 7.87766347 -0.4375 5.8125 C-0.35371094 4.72582031 -0.26992188 3.63914063 -0.18359375 2.51953125 C-0.12300781 1.68808594 -0.06242187 0.85664063 0 0 Z " fill="#050304" transform="translate(61,29)"/>
<path d="M0 0 C0.66 0 1.32 0 2 0 C2.21278058 4.46839215 1.59138085 7.82262526 0 12 C-0.99 12 -1.98 12 -3 12 C-3 10.35 -3 8.7 -3 7 C-2.34 7 -1.68 7 -1 7 C-0.67 4.69 -0.34 2.38 0 0 Z " fill="#0F0F0F" transform="translate(19,27)"/>
<path d="M0 0 C0 3 0 3 -2.375 5.5625 C-3.24125 6.366875 -4.1075 7.17125 -5 8 C-5.66 8.66 -6.32 9.32 -7 10 C-8.32 10 -9.64 10 -11 10 C-11 9.34 -11 8.68 -11 8 C-10.01 8 -9.02 8 -8 8 C-7.67 7.01 -7.34 6.02 -7 5 C-5.36368108 3.95107762 -3.69514137 2.95093297 -2 2 C-1.34 1.34 -0.68 0.68 0 0 Z " fill="#060405" transform="translate(57,49)"/>
<path d="M0 0 C4.62 0 9.24 0 14 0 C13.67 1.32 13.34 2.64 13 4 C12.34 3.67 11.68 3.34 11 3 C11 2.34 11 1.68 11 1 C7.9254644 1.7763932 7.9254644 1.7763932 6 4 C6 3.01 6 2.02 6 1 C5.01 1 4.02 1 3 1 C2.67 1.99 2.34 2.98 2 4 C2 3.34 2 2.68 2 2 C1.34 2 0.68 2 0 2 C0 1.34 0 0.68 0 0 Z " fill="#8D8D8D" transform="translate(11,26)"/>
<path d="M0 0 C0.99 0.33 1.98 0.66 3 1 C2.690625 1.53625 2.38125 2.0725 2.0625 2.625 C0.82172561 5.3984957 0.4090325 8.00042837 0 11 C-0.33 11 -0.66 11 -1 11 C-1.22174933 9.54364629 -1.42698698 8.08477044 -1.625 6.625 C-1.74101563 5.81289063 -1.85703125 5.00078125 -1.9765625 4.1640625 C-1.98429688 3.44992188 -1.99203125 2.73578125 -2 2 C-1.34 1.34 -0.68 0.68 0 0 Z M-4 4 C-3.01 4.495 -3.01 4.495 -2 5 C-2.66 6.32 -3.32 7.64 -4 9 C-4 7.35 -4 5.7 -4 4 Z " fill="#1E0711" transform="translate(4,15)"/>
<path d="M0 0 C2.64 0 5.28 0 8 0 C8 1.65 8 3.3 8 5 C7.01 5 6.02 5 5 5 C5 3.68 5 2.36 5 1 C4.01 1 3.02 1 2 1 C2 1.99 2 2.98 2 4 C1.01 3.67 0.02 3.34 -1 3 C-0.67 2.01 -0.34 1.02 0 0 Z " fill="#818181" transform="translate(44,26)"/>
<path d="M0 0 C1.27617187 0.02320313 2.55234375 0.04640625 3.8671875 0.0703125 C5.78917969 0.09738281 5.78917969 0.09738281 7.75 0.125 C9.23113281 0.15980469 9.23113281 0.15980469 10.7421875 0.1953125 C10.4121875 1.1853125 10.0821875 2.1753125 9.7421875 3.1953125 C8.0921875 3.1953125 6.4421875 3.1953125 4.7421875 3.1953125 C4.7421875 2.8653125 4.7421875 2.5353125 4.7421875 2.1953125 C1.4421875 2.1953125 -1.8578125 2.1953125 -5.2578125 2.1953125 C-3.2578125 0.1953125 -3.2578125 0.1953125 0 0 Z " fill="#92124A" transform="translate(24.2578125,3.8046875)"/>
<path d="M0 0 C-2.50515784 2.50515784 -4.61068165 3.05099086 -8 4 C-9.32 4 -10.64 4 -12 4 C-12 3.34 -12 2.68 -12 2 C-8.09971775 -0.60018816 -4.52565431 -0.15085514 0 0 Z " fill="#E41D76" transform="translate(31,5)"/>
<path d="M0 0 C-0.33 1.98 -0.66 3.96 -1 6 C-2.9375 5.25 -2.9375 5.25 -5 4 C-5.75 1.875 -5.75 1.875 -6 0 C-2.25 -1.125 -2.25 -1.125 0 0 Z " fill="#801141" transform="translate(8,29)"/>
<path d="M0 0 C0.66 0 1.32 0 2 0 C1.67 2.97 1.34 5.94 1 9 C0.01 8.67 -0.98 8.34 -2 8 C-2 6.68 -2 5.36 -2 4 C-1.34 4 -0.68 4 0 4 C0 2.68 0 1.36 0 0 Z " fill="#ED1E7A" transform="translate(7,18)"/>
<path d="M0 0 C0.99 0 1.98 0 3 0 C1.68775452 3.93673644 0.08089673 6.22719294 -3 9 C-2.25 2.25 -2.25 2.25 0 0 Z " fill="#30141F" transform="translate(13,16)"/>
<path d="M0 0 C0.99 0 1.98 0 3 0 C2.67 0.99 2.34 1.98 2 3 C1.01 2.67 0.02 2.34 -1 2 C-0.67 1.34 -0.34 0.68 0 0 Z M-3 2 C-2.34 2.33 -1.68 2.66 -1 3 C-2.32 4.32 -3.64 5.64 -5 7 C-5.99 6.67 -6.98 6.34 -8 6 C-6.35 4.68 -4.7 3.36 -3 2 Z " fill="#1F1D1E" transform="translate(58,47)"/>
<path d="M0 0 C1 3 1 3 1 7 C1.66 7.66 2.32 8.32 3 9 C1.68 9 0.36 9 -1 9 C-1.33 9.99 -1.66 10.98 -2 12 C-2 8.37 -2 4.74 -2 1 C-1.34 0.67 -0.68 0.34 0 0 Z " fill="#27171E" transform="translate(2,42)"/>
<path d="M0 0 C4.62 0 9.24 0 14 0 C14 0.33 14 0.66 14 1 C12.35 1 10.7 1 9 1 C8.67 1.99 8.34 2.98 8 4 C7.34 3.67 6.68 3.34 6 3 C6 2.34 6 1.68 6 1 C4.02 1 2.04 1 0 1 C0 0.67 0 0.34 0 0 Z " fill="#676767" transform="translate(30,26)"/>
<path d="M0 0 C0.66 0.33 1.32 0.66 2 1 C-3.14285714 7.57142857 -3.14285714 7.57142857 -7 9 C-5.44499019 5.18315774 -2.96404505 2.80804268 0 0 Z " fill="#B7B8B8" transform="translate(21,12)"/>
<path d="M0 0 C0.33 0 0.66 0 1 0 C0.67 2.97 0.34 5.94 0 9 C-0.66 9 -1.32 9 -2 9 C-1.125 1.125 -1.125 1.125 0 0 Z " fill="#060606" transform="translate(25,30)"/>
<path d="M0 0 C2 1 2 1 3.125 4.0625 C3.41375 5.031875 3.7025 6.00125 4 7 C2.68 7.33 1.36 7.66 0 8 C0 5.36 0 2.72 0 0 Z " fill="#3D373A" transform="translate(10,40)"/>
<path d="M0 0 C0.66 0 1.32 0 2 0 C2.79953138 3.28696233 3.09658936 4.71023192 2 8 C1.34 8 0.68 8 0 8 C0 5.36 0 2.72 0 0 Z " fill="#4B4B4B" transform="translate(33,29)"/>
<path d="M0 0 C0.99 0 1.98 0 3 0 C3 2.31 3 4.62 3 7 C2.34 7 1.68 7 1 7 C0.67 4.69 0.34 2.38 0 0 Z " fill="#CFCFCF" transform="translate(35,29)"/>
<path d="M0 0 C1.33332095 2.6666419 0.67102033 4.16680303 0 7 C-0.66 7 -1.32 7 -2 7 C-2.33 8.32 -2.66 9.64 -3 11 C-3.32613618 6.32538149 -2.70582788 3.83325617 0 0 Z " fill="#A71555" transform="translate(7,15)"/>
<path d="M0 0 C2.64 0 5.28 0 8 0 C8 0.66 8 1.32 8 2 C5.39417629 2.93065133 4.35801776 3.14917407 1.75 2.0625 C1.1725 1.711875 0.595 1.36125 0 1 C0 0.67 0 0.34 0 0 Z " fill="#190C12" transform="translate(36,0)"/>
</svg>
